<svg width="30" height="30" viewBox="0 0 30 30" xmlns="http://www.w3.org/2000/svg">
<path d="M25 23.729C26.375 23.729 27.5 22.3964 27.5 20.7677V5.96128C27.5 4.33258 26.375 3 25 3H5C3.625 3 2.5 4.33258 2.5 5.96128V20.7677C2.5 22.3964 3.625 23.729 5 23.729H1.25C0.5625 23.729 0 24.3953 0 25.2096C0 26.024 0.5625 26.6903 1.25 26.6903H28.75C29.4375 26.6903 30 26.024 30 25.2096C30 24.3953 29.4375 23.729 28.75 23.729H25ZM6.25 5.96128H23.75C24.4375 5.96128 25 6.62757 25 7.44193V19.2871C25 20.1014 24.4375 20.7677 23.75 20.7677H6.25C5.5625 20.7677 5 20.1014 5 19.2871V7.44193C5 6.62757 5.5625 5.96128 6.25 5.96128Z" fill="black"/>
</svg>
