<svg width="20" height="20" viewBox="0 0 20 20" fill="none" xmlns="http://www.w3.org/2000/svg">
<path d="M10.0002 16.4484L7.52002 13.4722V10.496H12.4803V13.4722L10.0002 16.4484Z" fill="#FF9800"/>
<path d="M14.4647 8.5119C15.0126 8.5119 15.4568 8.06774 15.4568 7.51983C15.4568 6.97193 15.0126 6.52777 14.4647 6.52777C13.9168 6.52777 13.4727 6.97193 13.4727 7.51983C13.4727 8.06774 13.9168 8.5119 14.4647 8.5119Z" fill="#FFA726"/>
<path d="M5.53601 8.5119C6.08391 8.5119 6.52807 8.06774 6.52807 7.51983C6.52807 6.97193 6.08391 6.52777 5.53601 6.52777C4.98811 6.52777 4.54395 6.97193 4.54395 7.51983C4.54395 8.06774 4.98811 8.5119 5.53601 8.5119Z" fill="#FFA726"/>
<path d="M14.4642 4.54367C14.4642 0.773827 5.53564 2.06351 5.53564 4.54367V8.01589C5.53564 10.496 7.51977 12.4802 9.99993 12.4802C12.4801 12.4802 14.4642 10.496 14.4642 8.01589V4.54367Z" fill="#FFB74D"/>
<path d="M9.99987 0.0793762C6.97407 0.0793762 5.03955 2.50993 5.03955 5.53573V6.6766L6.03161 7.51985V5.03969L11.984 3.05557L13.9681 5.03969V7.51985L14.9602 6.6766V5.53573C14.9602 3.5516 14.4642 1.56747 11.984 1.07144L11.488 0.0793762H9.99987Z" fill="#FF5722"/>
<path d="M11.9843 8.01587C12.2583 8.01587 12.4803 7.79379 12.4803 7.51984C12.4803 7.24588 12.2583 7.0238 11.9843 7.0238C11.7104 7.0238 11.4883 7.24588 11.4883 7.51984C11.4883 7.79379 11.7104 8.01587 11.9843 8.01587Z" fill="#784719"/>
<path d="M8.01605 8.01587C8.29 8.01587 8.51208 7.79379 8.51208 7.51984C8.51208 7.24588 8.29 7.0238 8.01605 7.0238C7.7421 7.0238 7.52002 7.24588 7.52002 7.51984C7.52002 7.79379 7.7421 8.01587 8.01605 8.01587Z" fill="#784719"/>
<path d="M12.4801 13.4722L9.99998 13.9683L7.51983 13.4722C7.51983 13.4722 2.06348 14.4643 2.06348 19.9206H17.9365C17.9365 14.4643 12.4801 13.4722 12.4801 13.4722Z" fill="#CFD8DC"/>
<path d="M9.50433 15.4563L9.0083 19.9206H10.9924L10.4964 15.4563L10.9924 14.9603L10.0004 13.9682L9.0083 14.9603L9.50433 15.4563Z" fill="#3F51B5"/>
</svg>
