<svg width="20" height="20" viewBox="0 0 20 20" fill="none" xmlns="http://www.w3.org/2000/svg">
<g clip-path="url(#clip0_1087_1766)">
<path d="M2.93115 18.4516V19.9969H16.5468V18.4516C16.5468 16.0813 13.2046 14.8781 9.79053 14.8828C6.39678 14.8875 2.93115 15.9422 2.93115 18.4516Z" fill="#424242"/>
<path d="M9.73906 14.1016H8.32031V15.6C8.32031 16.2781 8.89844 16.8281 9.61094 16.8281H9.86875C10.5812 16.8281 11.1594 16.2781 11.1594 15.6V14.1016H9.73906Z" fill="#E49500"/>
<path d="M11.2767 20H8.20166V14.9531L9.73916 16.8281L11.2767 14.9531V20Z" fill="#424242"/>
<path d="M14.7766 8.17813C14.7766 8.17813 15.6969 8.33751 15.6969 9.32969C15.6969 10.2047 15.025 10.55 14.3531 10.55V8.17813H14.7766ZM4.73281 8.17813C4.73281 8.17813 3.8125 8.33751 3.8125 9.32969C3.8125 10.2047 4.48438 10.55 5.15625 10.55V8.17813H4.73281Z" fill="#E39400"/>
<path d="M9.75479 1.6828C5.78604 1.6828 4.74854 4.75936 4.74854 9.08124C4.74854 13.5625 7.62822 14.7219 9.75479 14.7219C11.8501 14.7219 14.761 13.5969 14.761 9.08124C14.7626 4.75936 13.7235 1.6828 9.75479 1.6828Z" fill="#FAC01B"/>
<path d="M8.10615 9.48281C8.10615 9.92968 7.80771 10.2906 7.4374 10.2906C7.06865 10.2906 6.76709 9.92812 6.76709 9.48281C6.76709 9.03593 7.06709 8.67343 7.4374 8.67343C7.80771 8.67343 8.10615 9.03437 8.10615 9.48281ZM11.403 9.48281C11.403 9.92968 11.7015 10.2906 12.0733 10.2906C12.4421 10.2906 12.7421 9.92812 12.7421 9.48281C12.7421 9.03593 12.4421 8.67343 12.0733 8.67343C11.7015 8.67343 11.403 9.03437 11.403 9.48281Z" fill="#444444"/>
<path d="M11.2047 12.2125H8.30778C8.14216 12.2125 8.07028 12.3234 8.17966 12.4922C8.33278 12.7266 8.90466 13.1766 9.75622 13.1766C10.6078 13.1766 11.1797 12.7266 11.3328 12.4922C11.4422 12.3234 11.3703 12.2125 11.2047 12.2125Z" fill="#513F35"/>
<path d="M10.4545 10.9812C10.2076 11.0515 9.95136 11.0844 9.75448 11.0844C9.55761 11.0844 9.30136 11.05 9.05448 10.9812C8.9498 10.9515 8.90761 11.0515 8.94511 11.1172C9.02323 11.2547 9.33886 11.5328 9.75448 11.5328C10.1701 11.5328 10.4857 11.2547 10.5639 11.1172C10.6014 11.05 10.5607 10.95 10.4545 10.9812Z" fill="#E39400"/>
<path d="M9.8749 1.11876C9.8749 1.11876 9.79678 1.11564 9.76397 1.1172C9.73115 1.1172 9.65303 1.11876 9.65303 1.11876C5.37021 1.20157 4.07959 3.77814 4.07959 5.56407C4.07959 7.30001 4.08115 8.57657 4.08115 8.57657C4.08115 8.57657 4.1499 8.50626 4.2749 8.40782C4.40928 8.30314 4.55771 8.24532 4.55771 8.24532L4.77334 9.69532L6.1999 6.71407C6.20928 6.69532 6.22803 6.68438 6.24834 6.68751L7.09365 6.78126C7.94365 6.87501 8.79834 6.92189 9.65146 6.92345V6.92501C9.68896 6.92501 9.7249 6.92345 9.7624 6.92345C9.7999 6.92345 9.83584 6.92501 9.87334 6.92501V6.92188C10.7265 6.91876 11.5812 6.87345 12.4312 6.7797L13.2765 6.68595C13.2968 6.68439 13.3155 6.69532 13.3249 6.71251L14.7515 9.69376L14.9671 8.24376C14.9671 8.24376 15.1155 8.30313 15.2499 8.40626C15.3765 8.5047 15.4437 8.57501 15.4437 8.57501C15.4437 8.57501 15.4452 7.30001 15.4452 5.56251C15.4483 3.77814 14.1577 1.20157 9.8749 1.11876Z" fill="#6D4C41"/>
<path d="M9.74375 0L1.95312 1.44062L9.76406 0.003125L9.74375 0Z" fill="#262626"/>
<path d="M9.7876 0.0015625L9.78291 0L9.76416 0.003125L9.7876 0.0078125V0.0015625Z" fill="#424143"/>
<path d="M9.83125 0L17.6234 1.44062L9.8125 0.003125L9.83125 0Z" fill="#262626"/>
<path d="M17.6268 1.83749L17.6236 1.44061L9.79395 2.57499H9.78457L1.95332 1.44061L1.9502 1.83749L5.08613 2.38593L4.81738 3.1453C5.39238 3.39843 7.4752 4.23905 9.7877 4.29999C12.1002 4.23749 14.1096 3.39843 14.6846 3.1453L14.4158 2.38593L17.6268 1.83749Z" fill="#262626"/>
<path d="M9.7876 0.0015625L9.79385 0L9.8126 0.003125L9.7876 0.0078125V0.0015625Z" fill="#424143"/>
<path d="M9.8125 0.00311279L9.7875 0.00780029L9.76406 0.00311279L1.95312 1.44061L9.78281 2.57499L9.7875 2.57343L9.79375 2.57499L17.6234 1.44061L9.8125 0.00311279Z" fill="#424143"/>
<path d="M17.7657 7.17188C17.6079 7.17188 17.4813 7.3 17.4813 7.45625V8.67969C17.4813 8.75511 17.5113 8.82744 17.5646 8.88077C17.618 8.9341 17.6903 8.96406 17.7657 8.96406C17.8411 8.96406 17.9135 8.9341 17.9668 8.88077C18.0201 8.82744 18.0501 8.75511 18.0501 8.67969V7.45625C18.0501 7.3 17.9235 7.17188 17.7657 7.17188ZM17.197 7.17188C17.0392 7.17188 16.9126 7.3 16.9126 7.45625V8.67969C16.9126 8.75511 16.9426 8.82744 16.9959 8.88077C17.0492 8.9341 17.1216 8.96406 17.197 8.96406C17.2724 8.96406 17.3447 8.9341 17.3981 8.88077C17.4514 8.82744 17.4813 8.75511 17.4813 8.67969V7.45625C17.4813 7.3 17.3548 7.17188 17.197 7.17188Z" fill="#FBC11B"/>
<path d="M17.3781 7.17188C17.2203 7.17188 17.0938 7.3 17.0938 7.45625V8.67969C17.0938 8.75511 17.1237 8.82744 17.177 8.88077C17.2304 8.9341 17.3027 8.96406 17.3781 8.96406C17.4535 8.96406 17.5259 8.9341 17.5792 8.88077C17.6325 8.82744 17.6625 8.75511 17.6625 8.67969V7.45625C17.6625 7.3 17.5359 7.17188 17.3781 7.17188Z" fill="#E49500"/>
<path d="M17.5954 7.17188C17.4376 7.17188 17.311 7.3 17.311 7.45625V8.67969C17.311 8.8375 17.4392 8.96406 17.5954 8.96406C17.7517 8.96406 17.8798 8.83594 17.8798 8.67969V7.45625C17.8798 7.3 17.7532 7.17188 17.5954 7.17188Z" fill="#E49500"/>
<path d="M17.4812 7.17188C17.3233 7.17188 17.1968 7.3 17.1968 7.45625V8.94375C17.1968 9.01917 17.2267 9.0915 17.2801 9.14483C17.3334 9.19816 17.4057 9.22813 17.4812 9.22813C17.5566 9.22813 17.6289 9.19816 17.6822 9.14483C17.7356 9.0915 17.7655 9.01917 17.7655 8.94375V7.45625C17.7655 7.3 17.639 7.17188 17.4812 7.17188Z" fill="#FBC11B"/>
<path d="M17.4811 7.41249C17.6588 7.41249 17.8029 7.26838 17.8029 7.09061C17.8029 6.91285 17.6588 6.76874 17.4811 6.76874C17.3033 6.76874 17.1592 6.91285 17.1592 7.09061C17.1592 7.26838 17.3033 7.41249 17.4811 7.41249Z" fill="#E49500"/>
<path d="M17.4811 7.32969C17.6588 7.32969 17.8029 7.18558 17.8029 7.00782C17.8029 6.83005 17.6588 6.68594 17.4811 6.68594C17.3033 6.68594 17.1592 6.83005 17.1592 7.00782C17.1592 7.18558 17.3033 7.32969 17.4811 7.32969Z" fill="#FBC11B"/>
<path d="M17.3408 1.47656V6.9375H17.3439C17.3502 7.00938 17.4096 7.06719 17.483 7.06719C17.5564 7.06719 17.6158 7.01094 17.6221 6.9375H17.6252V1.47656H17.3408Z" fill="#262626"/>
</g>
<defs>
<clipPath id="clip0_1087_1766">
<rect width="20" height="20" fill="white"/>
</clipPath>
</defs>
</svg>
