<svg width="20" height="24" viewBox="0 0 20 24" fill="none" xmlns="http://www.w3.org/2000/svg">
<g clip-path="url(#clip0_1022_5635)">
<path d="M2.4 24C1.74 24 1.1748 23.7648 0.704402 23.2944C0.234002 22.824 -0.000797963 22.2592 2.03735e-06 21.6V2.4C2.03735e-06 1.74 0.235202 1.1748 0.705602 0.704402C1.176 0.234002 1.7408 -0.000797963 2.4 2.03735e-06H16.8C17.46 2.03735e-06 18.0252 0.235202 18.4956 0.705602C18.966 1.176 19.2008 1.7408 19.2 2.4V21.6C19.2 22.26 18.9648 22.8252 18.4944 23.2956C18.024 23.766 17.4592 24.0008 16.8 24H2.4ZM2.4 21.6H16.8V2.4H14.4V10.8L11.4 9L8.4 10.8V2.4H2.4V21.6Z" fill="black"/>
</g>
<defs>
<clipPath id="clip0_1022_5635">
<rect width="19.2" height="24" fill="white"/>
</clipPath>
</defs>
</svg>
