<svg width="20" height="24" viewBox="0 0 20 24" fill="none" xmlns="http://www.w3.org/2000/svg">
<g clip-path="url(#clip0_1022_5633)">
<path d="M2.4 24C1.74 24 1.1748 23.7648 0.704402 23.2944C0.234002 22.824 -0.000797963 22.2592 2.03735e-06 21.6V2.4C2.03735e-06 1.74 0.235202 1.1748 0.705602 0.704402C1.176 0.234002 1.7408 -0.000797963 2.4 2.03735e-06H16.8C17.46 2.03735e-06 18.0252 0.235202 18.4956 0.705602C18.966 1.176 19.2008 1.7408 19.2 2.4V21.6C19.2 22.26 18.9648 22.8252 18.4944 23.2956C18.024 23.766 17.4592 24.0008 16.8 24H2.4ZM8.4 2.4V9.75C8.4 9.99 8.4952 10.1652 8.6856 10.2756C8.876 10.386 9.0808 10.3808 9.3 10.26L10.77 9.39C10.97 9.27 11.1752 9.21 11.3856 9.21C11.596 9.21 11.8008 9.27 12 9.39L13.47 10.26C13.69 10.38 13.9 10.3852 14.1 10.2756C14.3 10.166 14.4 9.9908 14.4 9.75V2.4H8.4Z" fill="black"/>
</g>
<defs>
<clipPath id="clip0_1022_5633">
<rect width="19.2" height="24" fill="white"/>
</clipPath>
</defs>
</svg>
