<svg width="24" height="24" viewBox="0 0 24 24" fill="none" xmlns="http://www.w3.org/2000/svg">
<g clip-path="url(#clip0_1022_3997)">
<path fill-rule="evenodd" clip-rule="evenodd" d="M13.4736 0.86901C13.0523 0.52403 12.5338 0.336731 12 0.336731C11.4662 0.336731 10.9477 0.52403 10.5264 0.86901L0.465602 9.1048C-0.436797 9.84627 0.0600024 11.3684 1.2036 11.3684H2.4V21.4736C2.4 22.1437 2.65286 22.7862 3.10295 23.26C3.55303 23.7338 4.16348 24 4.8 24H10.8V15.1579C10.8 14.8228 10.9264 14.5016 11.1515 14.2647C11.3765 14.0278 11.6817 13.8947 12 13.8947C12.3183 13.8947 12.6235 14.0278 12.8485 14.2647C13.0736 14.5016 13.2 14.8228 13.2 15.1579V24H19.2C19.8365 24 20.447 23.7338 20.8971 23.26C21.3471 22.7862 21.6 22.1437 21.6 21.4736V11.3684H22.7964C23.9388 11.3684 24.438 9.84627 23.5344 9.10606L13.4736 0.86901Z" fill="black"/>
</g>
<defs>
<clipPath id="clip0_1022_3997">
<rect width="24" height="24" fill="white"/>
</clipPath>
</defs>
</svg>
