<svg width="24" height="24" viewBox="0 0 24 24" fill="none" xmlns="http://www.w3.org/2000/svg">
<g clip-path="url(#clip0_1022_4001)">
<path fill-rule="evenodd" clip-rule="evenodd" d="M13.4736 0.86901C13.0523 0.52403 12.5338 0.336731 12 0.336731C11.4662 0.336731 10.9477 0.52403 10.5264 0.86901L0.465602 9.1048C-0.436798 9.84627 0.0600024 11.3684 1.2036 11.3684H2.4V21.4736C2.4 22.1437 2.65286 22.7862 3.10295 23.26C3.55303 23.7338 4.16348 24 4.8 24H19.2C19.8365 24 20.447 23.7338 20.8971 23.26C21.3471 22.7862 21.6 22.1437 21.6 21.4736V11.3684H22.7964C23.9388 11.3684 24.438 9.84627 23.5344 9.10606L13.4736 0.86901ZM13.2 21.4736V13.8947C13.2 13.5597 13.0736 13.2384 12.8485 13.0015C12.6235 12.7646 12.3183 12.6315 12 12.6315C11.6817 12.6315 11.3765 12.7646 11.1515 13.0015C10.9264 13.2384 10.8 13.5597 10.8 13.8947V21.4736H4.8V10.1179C4.8 9.71743 4.6248 9.35996 4.35 9.12627L12 2.86354L19.65 9.12627C19.5094 9.24569 19.396 9.39674 19.3181 9.56833C19.2403 9.73992 19.1999 9.92769 19.2 10.1179V21.4736H13.2Z" fill="black"/>
</g>
<defs>
<clipPath id="clip0_1022_4001">
<rect width="24" height="24" fill="white"/>
</clipPath>
</defs>
</svg>
