<svg width="24" height="24" viewBox="0 0 24 24" fill="none" xmlns="http://www.w3.org/2000/svg">
<g clip-path="url(#clip0_1020_3681)">
<path d="M12 24C6.3432 24 3.5148 24 1.7568 22.242C0 20.4864 0 17.6568 0 12C0 6.3432 0 3.5148 1.7568 1.7568C3.516 0 6.3432 0 12 0C13.6788 0 15.108 1.2964e-07 16.3344 0.0456001C15.4317 1.07656 14.9548 2.41213 15.0001 3.78166C15.0455 5.15119 15.6099 6.45226 16.5788 7.42119C17.5477 8.39013 18.8488 8.95447 20.2183 8.99985C21.5879 9.04524 22.9234 8.56827 23.9544 7.6656C24 8.892 24 10.3212 24 12C24 17.6568 24 20.4852 22.242 22.242C20.4864 24 17.6568 24 12 24Z" fill="black"/>
<path d="M24 3.6C24 4.55478 23.6207 5.47045 22.9456 6.14559C22.2704 6.82072 21.3548 7.2 20.4 7.2C19.4452 7.2 18.5295 6.82072 17.8544 6.14559C17.1793 5.47045 16.8 4.55478 16.8 3.6C16.8 2.64522 17.1793 1.72955 17.8544 1.05442C18.5295 0.379285 19.4452 0 20.4 0C21.3548 0 22.2704 0.379285 22.9456 1.05442C23.6207 1.72955 24 2.64522 24 3.6Z" fill="black"/>
</g>
<defs>
<clipPath id="clip0_1020_3681">
<rect width="24" height="24" fill="white"/>
</clipPath>
</defs>
</svg>
