<svg width="24" height="24" viewBox="0 0 24 24" fill="none" xmlns="http://www.w3.org/2000/svg">
<g clip-path="url(#clip0_1020_3685)">
<path fill-rule="evenodd" clip-rule="evenodd" d="M10.7368 2.52613C8.55927 2.52613 6.4709 3.39117 4.93112 4.93094C3.39135 6.47071 2.52632 8.55909 2.52632 10.7367C2.52632 12.9142 3.39135 15.0026 4.93112 16.5424C6.4709 18.0822 8.55927 18.9472 10.7368 18.9472C12.9144 18.9472 15.0028 18.0822 16.5426 16.5424C18.0823 15.0026 18.9474 12.9142 18.9474 10.7367C18.9474 8.55909 18.0823 6.47071 16.5426 4.93094C15.0028 3.39117 12.9144 2.52613 10.7368 2.52613ZM2.42131e-08 10.7367C0.000145884 9.02457 0.409723 7.33733 1.19456 5.81572C1.9794 4.29411 3.11674 2.98225 4.51169 1.98959C5.90664 0.99693 7.51875 0.352253 9.21353 0.109345C10.9083 -0.133562 12.6366 0.0323446 14.2542 0.593223C15.8718 1.1541 17.3319 2.09369 18.5125 3.33359C19.6931 4.5735 20.5601 6.07776 21.0412 7.72089C21.5222 9.36402 21.6033 11.0984 21.2778 12.7792C20.9522 14.4601 20.2294 16.0387 19.1697 17.3834L23.7827 21.9964C24.0128 22.2347 24.1401 22.5538 24.1373 22.885C24.1344 23.2162 24.0015 23.533 23.7673 23.7672C23.5331 24.0014 23.2163 24.1342 22.8851 24.1371C22.5539 24.14 22.2349 24.0126 21.9966 23.7826L17.3836 19.1695C15.8004 20.4175 13.8978 21.1945 11.8935 21.4117C9.88933 21.6289 7.86445 21.2775 6.05064 20.3976C4.23684 19.5177 2.7074 18.1449 1.63734 16.4364C0.567292 14.7279 -0.000135339 12.7526 2.42131e-08 10.7367ZM9.47368 6.31561C9.47368 5.9806 9.60677 5.65931 9.84365 5.42242C10.0805 5.18553 10.4018 5.05245 10.7368 5.05245C12.2444 5.05245 13.6902 5.65132 14.7562 6.71732C15.8222 7.78331 16.4211 9.22911 16.4211 10.7367C16.4211 11.0717 16.288 11.393 16.0511 11.6298C15.8142 11.8667 15.4929 11.9998 15.1579 11.9998C14.8229 11.9998 14.5016 11.8667 14.2647 11.6298C14.0278 11.393 13.8947 11.0717 13.8947 10.7367C13.8947 9.89914 13.562 9.09591 12.9698 8.50369C12.3776 7.91147 11.5744 7.57877 10.7368 7.57877C10.4018 7.57877 10.0805 7.44568 9.84365 7.2088C9.60677 6.97191 9.47368 6.65062 9.47368 6.31561Z" fill="black"/>
</g>
<defs>
<clipPath id="clip0_1020_3685">
<rect width="24" height="24" fill="white"/>
</clipPath>
</defs>
</svg>
