<svg width="24" height="24" viewBox="0 0 24 24" fill="none" xmlns="http://www.w3.org/2000/svg">
<g clip-path="url(#clip0_1020_3689)">
<path fill-rule="evenodd" clip-rule="evenodd" d="M2.42131e-08 10.7367C0.000145884 9.02457 0.409723 7.33733 1.19456 5.81572C1.9794 4.29411 3.11674 2.98225 4.51169 1.98959C5.90664 0.99693 7.51875 0.352253 9.21353 0.109345C10.9083 -0.133562 12.6366 0.0323446 14.2542 0.593223C15.8718 1.1541 17.3319 2.09369 18.5125 3.33359C19.6931 4.5735 20.5601 6.07776 21.0412 7.72089C21.5222 9.36402 21.6033 11.0984 21.2778 12.7792C20.9522 14.4601 20.2294 16.0387 19.1697 17.3834L23.7827 21.9965C24.0128 22.2347 24.1402 22.5538 24.1373 22.885C24.1344 23.2162 24.0016 23.533 23.7674 23.7672C23.5332 24.0014 23.2163 24.1342 22.8851 24.1371C22.5539 24.14 22.2349 24.0127 21.9966 23.7826L17.3836 19.1695C15.8004 20.4175 13.8978 21.1946 11.8935 21.4117C9.88933 21.6289 7.86445 21.2775 6.05064 20.3976C4.23684 19.5177 2.7074 18.1449 1.63734 16.4364C0.567292 14.7279 -0.000135339 12.7526 2.42131e-08 10.7367ZM10.7368 5.05245C10.4018 5.05245 10.0805 5.18553 9.84366 5.42242C9.60677 5.65931 9.47368 5.9806 9.47368 6.31561C9.47368 6.65062 9.60677 6.97191 9.84366 7.2088C10.0805 7.44568 10.4018 7.57877 10.7368 7.57877C11.5744 7.57877 12.3776 7.91147 12.9698 8.50369C13.562 9.09591 13.8947 9.89914 13.8947 10.7367C13.8947 11.0717 14.0278 11.393 14.2647 11.6298C14.5016 11.8667 14.8229 11.9998 15.1579 11.9998C15.4929 11.9998 15.8142 11.8667 16.0511 11.6298C16.288 11.393 16.4211 11.0717 16.4211 10.7367C16.4211 9.22912 15.8222 7.78331 14.7562 6.71732C13.6902 5.65132 12.2444 5.05245 10.7368 5.05245Z" fill="black"/>
</g>
<defs>
<clipPath id="clip0_1020_3689">
<rect width="24" height="24" fill="white"/>
</clipPath>
</defs>
</svg>
