<svg width="22" height="24" viewBox="0 0 22 24" fill="none" xmlns="http://www.w3.org/2000/svg">
<g clip-path="url(#clip0_1020_2045)">
<path d="M15.6 14.4C17.1462 14.4001 18.6326 14.9971 19.7493 16.0664C20.8661 17.1357 21.5269 18.5949 21.594 20.1396L21.6 20.4V21.6C21.6002 22.2055 21.3715 22.7887 20.9598 23.2327C20.5481 23.6766 19.9838 23.9486 19.38 23.994L19.2 24H2.4C1.79451 24.0002 1.21132 23.7715 0.767342 23.3598C0.323365 22.9481 0.051412 22.3838 0.00600014 21.78L0 21.6V20.4C8.9331e-05 18.8538 0.59705 17.3674 1.66639 16.2507C2.73573 15.1339 4.1949 14.4731 5.7396 14.406L6 14.4H15.6ZM10.8 0C12.3913 0 13.9174 0.632141 15.0426 1.75736C16.1679 2.88258 16.8 4.4087 16.8 6C16.8 7.5913 16.1679 9.11742 15.0426 10.2426C13.9174 11.3679 12.3913 12 10.8 12C9.2087 12 7.68258 11.3679 6.55736 10.2426C5.43214 9.11742 4.8 7.5913 4.8 6C4.8 4.4087 5.43214 2.88258 6.55736 1.75736C7.68258 0.632141 9.2087 0 10.8 0Z" fill="black"/>
</g>
<defs>
<clipPath id="clip0_1020_2045">
<rect width="21.6" height="24" fill="white"/>
</clipPath>
</defs>
</svg>
