<svg width="22" height="24" viewBox="0 0 22 24" fill="none" xmlns="http://www.w3.org/2000/svg">
<path fill-rule="evenodd" clip-rule="evenodd" d="M15.0857 14.4C16.5582 14.4 17.9739 14.9686 19.0375 15.987C20.101 17.0054 20.7304 18.3951 20.7943 19.8662L20.8 20.1142V21.2571C20.8002 21.8338 20.5824 22.3892 20.1903 22.812C19.7982 23.2348 19.2608 23.4939 18.6857 23.5371L18.5143 23.5428H2.51429C1.93763 23.543 1.38221 23.3252 0.959379 22.9331C0.536543 22.541 0.27754 22.0036 0.234291 21.4285L0.228577 21.2571V20.1142C0.228662 18.6417 0.797196 17.2261 1.81562 16.1625C2.83404 15.0989 4.22372 14.4696 5.69486 14.4057L5.94286 14.4H15.0857ZM15.0857 16.6857H5.94286C5.06834 16.6856 4.22685 17.0198 3.59056 17.6197C2.95428 18.2197 2.57131 19.0401 2.52001 19.9131L2.51429 20.1142V21.2571H18.5143V20.1142C18.5143 19.2397 18.1802 18.3982 17.5803 17.7619C16.9803 17.1257 16.1599 16.7427 15.2869 16.6914L15.0857 16.6857ZM10.5143 0.685669C12.0298 0.685669 13.4833 1.28771 14.5549 2.35934C15.6265 3.43098 16.2286 4.88443 16.2286 6.39995C16.2286 7.91548 15.6265 9.36893 14.5549 10.4406C13.4833 11.5122 12.0298 12.1142 10.5143 12.1142C8.99877 12.1142 7.54532 11.5122 6.47368 10.4406C5.40204 9.36893 4.80001 7.91548 4.80001 6.39995C4.80001 4.88443 5.40204 3.43098 6.47368 2.35934C7.54532 1.28771 8.99877 0.685669 10.5143 0.685669ZM10.5143 2.97138C10.064 2.97138 9.61821 3.06007 9.20223 3.23237C8.78626 3.40467 8.4083 3.65722 8.08992 3.97559C7.77155 4.29396 7.51901 4.67192 7.3467 5.0879C7.1744 5.50387 7.08572 5.94971 7.08572 6.39995C7.08572 6.8502 7.1744 7.29604 7.3467 7.71201C7.51901 8.12799 7.77155 8.50595 8.08992 8.82432C8.4083 9.14269 8.78626 9.39524 9.20223 9.56754C9.61821 9.73984 10.064 9.82853 10.5143 9.82853C11.4236 9.82853 12.2957 9.4673 12.9387 8.82432C13.5816 8.18134 13.9429 7.30927 13.9429 6.39995C13.9429 5.49064 13.5816 4.61857 12.9387 3.97559C12.2957 3.33261 11.4236 2.97138 10.5143 2.97138Z" fill="black"/>
</svg>
