<svg width="30" height="30" viewBox="0 0 30 30" fill="none" xmlns="http://www.w3.org/2000/svg">
<path d="M17.4083 5C16.911 5 16.4341 5.19754 16.0825 5.54917C15.7308 5.90081 15.5333 6.37772 15.5333 6.875C15.5333 7.37228 15.7308 7.84919 16.0825 8.20083C16.4341 8.55246 16.911 8.75 17.4083 8.75C17.9056 8.75 18.3825 8.55246 18.7341 8.20083C19.0858 7.84919 19.2833 7.37228 19.2833 6.875C19.2833 6.37772 19.0858 5.90081 18.7341 5.54917C18.3825 5.19754 17.9056 5 17.4083 5ZM16.9583 10.9625C15.4708 11.0875 11.4083 14.325 11.4083 14.325C11.1583 14.5125 11.2333 14.5 11.4333 14.85C11.6333 15.1875 11.6083 15.2125 11.8458 15.05C12.0958 14.8875 12.5083 14.625 13.1958 14.2C15.8458 12.5 13.6208 16.425 12.4833 23.0375C12.0333 26.3125 14.9833 24.625 15.7458 24.125C16.4958 23.6375 18.5083 22.25 18.7083 22.1125C18.9833 21.925 18.7833 21.775 18.5708 21.4625C18.4208 21.25 18.2708 21.4 18.2708 21.4C17.4583 21.9375 15.9708 23.0625 15.7708 22.35C15.5333 21.6375 17.0583 16.75 17.8958 13.3875C18.0333 12.5875 18.4083 10.8375 16.9583 10.9625Z" fill="black"/>
</svg>
