<svg width="20" height="18" viewBox="0 0 20 18" fill="none" xmlns="http://www.w3.org/2000/svg">
<path d="M17.7778 2.77778C18.0833 2.77778 18.3333 3.02778 18.3333 3.33334V4.44445H1.66667V3.33334C1.66667 3.02778 1.91667 2.77778 2.22222 2.77778H17.7778ZM18.3333 7.77778V14.4444C18.3333 14.75 18.0833 15 17.7778 15H2.22222C1.91667 15 1.66667 14.75 1.66667 14.4444V7.77778H18.3333ZM2.22222 1.11111C0.996528 1.11111 0 2.10764 0 3.33334V14.4444C0 15.6701 0.996528 16.6667 2.22222 16.6667H17.7778C19.0035 16.6667 20 15.6701 20 14.4444V3.33334C20 2.10764 19.0035 1.11111 17.7778 1.11111H2.22222ZM4.16667 11.6667C3.70486 11.6667 3.33333 12.0382 3.33333 12.5C3.33333 12.9618 3.70486 13.3333 4.16667 13.3333H5.83333C6.29514 13.3333 6.66667 12.9618 6.66667 12.5C6.66667 12.0382 6.29514 11.6667 5.83333 11.6667H4.16667ZM8.61111 11.6667C8.14931 11.6667 7.77778 12.0382 7.77778 12.5C7.77778 12.9618 8.14931 13.3333 8.61111 13.3333H12.5C12.9618 13.3333 13.3333 12.9618 13.3333 12.5C13.3333 12.0382 12.9618 11.6667 12.5 11.6667H8.61111Z" fill="black"/>
</svg>
