<svg width="18" height="18" viewBox="0 0 18 18" fill="none" xmlns="http://www.w3.org/2000/svg">
<g clip-path="url(#clip0_632_1486)">
<path d="M16.8337 5.25001C17.5003 5.91668 17.5003 7.00001 16.8337 7.58334L14.5003 9.91668L8.00033 3.41668L10.3337 1.08334C11.0003 0.416677 12.0837 0.416677 12.667 1.08334L14.167 2.58334L16.667 0.0833435L17.8337 1.25001L15.3337 3.75001L16.8337 5.25001ZM12.0003 10.0833L10.8337 8.91668L8.50033 11.25L6.75033 9.50001L9.08366 7.16668L7.91699 6.00001L5.58366 8.33334L4.33366 7.16668L2.00033 9.50001C1.33366 10.1667 1.33366 11.25 2.00033 11.8333L3.50033 13.3333L0.166992 16.6667L1.33366 17.8333L4.66699 14.5L6.16699 16C6.83366 16.6667 7.91699 16.6667 8.50033 16L10.8337 13.6667L9.66699 12.5L12.0003 10.0833Z" fill="black"/>
</g>
<defs>
<clipPath id="clip0_632_1486">
<rect width="18" height="18" fill="white"/>
</clipPath>
</defs>
</svg>
