<svg width="18" height="19" viewBox="0 0 18 19" fill="none" xmlns="http://www.w3.org/2000/svg">
<g clip-path="url(#clip0_617_1304)">
<path d="M12.2143 4.79167C12.2143 3.9974 11.8756 3.23566 11.2728 2.67403C10.67 2.1124 9.85248 1.79688 9 1.79688C8.14752 1.79688 7.32995 2.1124 6.72716 2.67403C6.12436 3.23566 5.78571 3.9974 5.78571 4.79167C5.78571 5.58593 6.12436 6.34767 6.72716 6.9093C7.32995 7.47094 8.14752 7.78646 9 7.78646C9.85248 7.78646 10.67 7.47094 11.2728 6.9093C11.8756 6.34767 12.2143 5.58593 12.2143 4.79167ZM3.85714 4.79167C3.85714 3.52084 4.39898 2.30206 5.36345 1.40345C6.32792 0.504835 7.63603 0 9 0C10.364 0 11.6721 0.504835 12.6365 1.40345C13.601 2.30206 14.1429 3.52084 14.1429 4.79167C14.1429 6.0625 13.601 7.28127 12.6365 8.17989C11.6721 9.0785 10.364 9.58333 9 9.58333C7.63603 9.58333 6.32792 9.0785 5.36345 8.17989C4.39898 7.28127 3.85714 6.0625 3.85714 4.79167ZM1.9808 17.3698H16.0192C15.6616 15.0002 13.4759 13.1771 10.8362 13.1771H7.16384C4.52411 13.1771 2.33839 15.0002 1.9808 17.3698ZM0 18.0548C0 14.3675 3.20625 11.3802 7.16384 11.3802H10.8362C14.7938 11.3802 18 14.3675 18 18.0548C18 18.6688 17.4656 19.1667 16.8067 19.1667H1.1933C0.534375 19.1667 0 18.6688 0 18.0548Z" fill="black"/>
</g>
<defs>
<clipPath id="clip0_617_1304">
<rect width="18" height="19" fill="white"/>
</clipPath>
</defs>
</svg>
